<?xml version="1.0" encoding="utf-8"?>
<!-- Generator: Adobe Illustrator 19.0.0, SVG Export Plug-In . SVG Version: 6.00 Build 0)  -->
<svg version="1.1" id="图层_1" xmlns="http://www.w3.org/2000/svg" xmlns:xlink="http://www.w3.org/1999/xlink" x="0px" y="0px"
	 viewBox="0 0 2736.7 545.3" style="enable-background:new 0 0 2736.7 545.3;" xml:space="preserve">
<style type="text/css">
	.st0{fill:url(#XMLID_99_);}
	.st1{fill:url(#XMLID_100_);}
	.st2{fill:url(#XMLID_101_);}
	.st3{fill:#DBEAFC;}
	.st4{fill:#7795E6;}
	.st5{fill:#9198A8;}
</style>
<g id="XMLID_9_">
	<linearGradient id="XMLID_99_" gradientUnits="userSpaceOnUse" x1="10.3656" y1="279.4269" x2="160.8612" y2="279.4269">
		<stop  offset="0" style="stop-color:#7F96FF"/>
		<stop  offset="1" style="stop-color:#7595E0"/>
	</linearGradient>
	<path id="XMLID_14_" class="st0" d="M10.4,191.1l147.4,185.2l3.1-8.1L13,182.5C12.1,185.3,11.2,188.2,10.4,191.1z"/>
	<linearGradient id="XMLID_100_" gradientUnits="userSpaceOnUse" x1="22.8685" y1="246.3614" x2="173.268" y2="246.3614">
		<stop  offset="0" style="stop-color:#7F96FF"/>
		<stop  offset="1" style="stop-color:#7595E0"/>
	</linearGradient>
	<path id="XMLID_15_" class="st1" d="M22.9,156.9l147.7,185.6l2.7-7.2L26,150.2C24.9,152.4,23.9,154.7,22.9,156.9z"/>
	<linearGradient id="XMLID_101_" gradientUnits="userSpaceOnUse" x1="0" y1="264.6667" x2="529.3334" y2="264.6667">
		<stop  offset="0" style="stop-color:#7F96FF"/>
		<stop  offset="1" style="stop-color:#7595E0"/>
	</linearGradient>
	<path id="XMLID_16_" class="st2" d="M271.1,378.2c-0.6,0.5-1,0.8-1.7,0l-71.9-86c-0.4-0.5-0.2-1.2,0.3-1.7
		c0,0,158.5-133,222.4-239.9C376.6,18.8,322.8,0,264.7,0c-96,0-180.1,51.1-226.5,127.7L183,309.6l2.9-7.7c1.1-3,5-3.6,7-1.2
		l66.6,81.2c2,2.4,0.6,6.1-2.5,6.6l-97.6,16.1c-1.6,0.8-3.5,1.1-5.2,0.9l-0.8,0.1c-2.1,0.4-4-1-4.6-2.8c-0.2-0.2-0.4-0.5-0.6-0.7
		L3.7,220.6c-2.4,14.3-3.7,29-3.7,44c0,146.2,118.5,264.7,264.7,264.7s264.7-118.5,264.7-264.7c0-31.3-5.5-61.4-15.5-89.3
		L271.1,378.2z"/>
</g>
<g id="XMLID_18_">
	<g id="XMLID_37_">
		<path id="XMLID_42_" class="st3" d="M2185.2,287.4c-0.8-1.4-1.7-2.8-2.6-4.2l-127,121c1.3,1,2.6,2,3.9,2.9L2185.2,287.4z"/>
		<path id="XMLID_43_" class="st3" d="M2165.3,263.7l-127.5,121.5c1,1.5,2.1,3,3.3,4.4l128.3-122.3
			C2168,266.1,2166.7,264.8,2165.3,263.7z"/>
		<path id="XMLID_44_" class="st3" d="M2067.5,412.1c12.5,6.9,26.7,10.8,41.9,10.8c48.6,0,88-40.2,88-89.8c0-13.3-2.9-25.9-8-37.3
			L2067.5,412.1z"/>
		<path id="XMLID_45_" class="st3" d="M2160.6,260c-14.4-10.5-32.1-16.7-51.2-16.7c-48.6,0-88,40.2-88,89.8
			c0,17.3,4.8,33.4,13.1,47.1L2160.6,260z"/>
	</g>
	<g id="XMLID_41_">
		<path id="XMLID_46_" class="st3" d="M2456.9,286.8c-0.8-1.5-1.7-2.9-2.5-4.3l-123.5,117.7c1.2,1.1,2.4,2.2,3.6,3.3L2456.9,286.8z"
			/>
		<path id="XMLID_47_" class="st3" d="M2437.4,262.8l-122.5,116.7c0.9,1.6,1.9,3.2,2.9,4.7l123.6-117.8
			C2440.1,265.2,2438.8,264,2437.4,262.8z"/>
		<path id="XMLID_48_" class="st3" d="M2432.8,259.1c-13.3-9.9-29.5-15.8-46.9-15.8c-45.8,0-82.9,40.2-82.9,89.8
			c0,14.8,3.3,28.7,9.1,40.9L2432.8,259.1z"/>
		<path id="XMLID_49_" class="st3" d="M2341.8,409.1c12.8,8.7,27.9,13.8,44.1,13.8c45.8,0,82.9-40.2,82.9-89.8
			c0-13.5-2.8-26.2-7.7-37.7L2341.8,409.1z"/>
	</g>
	<g id="XMLID_19_">
		<path id="XMLID_20_" class="st4" d="M962,177.6c-13.1-14.1-25.7-23.5-38-28.2c-12.2-4.7-24.6-7-37-7c-18.4,0-35.1,3.3-50.1,9.8
			c-14.9,6.5-27.8,15.6-38.5,27.2c-10.7,11.6-19,25.1-24.9,40.5c-5.9,15.4-8.8,32-8.8,49.8c0,19.1,2.9,36.7,8.8,52.8
			c5.9,16.1,14.2,30,24.9,41.8c10.7,11.7,23.6,21,38.5,27.7c14.9,6.7,31.6,10.1,50.1,10.1c14.4,0,28.4-3.4,42-10.3
			c13.6-6.9,26.2-17.9,38-32.9l52.3,37.2c-16.1,22.1-35.7,38.2-58.9,48.3c-23.1,10.1-47.8,15.1-73.9,15.1
			c-27.5,0-52.7-4.4-75.7-13.3c-23-8.9-42.8-21.5-59.4-37.7c-16.6-16.3-29.6-35.8-39-58.6c-9.4-22.8-14.1-48.1-14.1-76
			c0-28.5,4.7-54.4,14.1-77.7c9.4-23.3,22.4-43.2,39-59.6c16.6-16.4,36.4-29.1,59.4-38c23-8.9,48.2-13.3,75.7-13.3
			c24.1,0,46.5,4.3,67.2,12.8c20.6,8.6,39.8,23.1,57.6,43.5L962,177.6z"/>
		<path id="XMLID_22_" class="st4" d="M1062.1,94.1h123.7c17.1,0,33.6,1.6,49.5,4.8c15.9,3.2,30.1,8.6,42.5,16.3
			c12.4,7.7,22.3,18.1,29.7,31.2c7.4,13.1,11.1,29.7,11.1,49.8c0,25.8-7.1,47.5-21.4,64.9c-14.3,17.4-34.6,28-61.1,31.7l94.6,157.4
			h-76.5l-82.5-150.9h-46.3v150.9h-63.4V94.1z M1174.8,245c9.1,0,18.1-0.4,27.2-1.3c9.1-0.8,17.4-2.8,24.9-6
			c7.5-3.2,13.7-8,18.4-14.6c4.7-6.5,7-15.7,7-27.4c0-10.4-2.2-18.8-6.5-25.2c-4.4-6.4-10.1-11.1-17.1-14.3
			c-7-3.2-14.8-5.3-23.4-6.3c-8.6-1-16.9-1.5-24.9-1.5h-54.8V245H1174.8z"/>
		<path id="XMLID_25_" class="st4" d="M1623.5,177.6c-13.1-14.1-25.7-23.5-38-28.2c-12.2-4.7-24.6-7-37-7c-18.4,0-35.1,3.3-50.1,9.8
			c-14.9,6.5-27.8,15.6-38.5,27.2c-10.7,11.6-19,25.1-24.9,40.5c-5.9,15.4-8.8,32-8.8,49.8c0,19.1,2.9,36.7,8.8,52.8
			c5.9,16.1,14.2,30,24.9,41.8c10.7,11.7,23.6,21,38.5,27.7c14.9,6.7,31.6,10.1,50.1,10.1c14.4,0,28.4-3.4,42-10.3
			c13.6-6.9,26.2-17.9,38-32.9l52.3,37.2c-16.1,22.1-35.7,38.2-58.9,48.3c-23.1,10.1-47.8,15.1-73.9,15.1
			c-27.5,0-52.7-4.4-75.7-13.3c-23-8.9-42.8-21.5-59.4-37.7c-16.6-16.3-29.6-35.8-39-58.6c-9.4-22.8-14.1-48.1-14.1-76
			c0-28.5,4.7-54.4,14.1-77.7c9.4-23.3,22.4-43.2,39-59.6c16.6-16.4,36.4-29.1,59.4-38c23-8.9,48.2-13.3,75.7-13.3
			c24.1,0,46.5,4.3,67.2,12.8c20.6,8.6,39.8,23.1,57.6,43.5L1623.5,177.6z"/>
		<path id="XMLID_27_" class="st5" d="M1721,70h39.2v177.6h1c2.7-4.7,6.4-9.3,11.1-13.8c4.7-4.5,10.3-8.6,16.9-12.3
			c6.5-3.7,13.8-6.7,21.9-9.1c8-2.3,16.6-3.5,25.7-3.5c15.4,0,28.8,2.4,40,7c11.2,4.7,20.5,11.2,27.9,19.6
			c7.4,8.4,12.8,18.5,16.3,30.4c3.5,11.9,5.3,24.9,5.3,39v145.4H1887V308.9c0-19.8-4.4-35.4-13.1-46.8
			c-8.7-11.4-22.3-17.1-40.7-17.1c-12.7,0-23.7,2.2-32.9,6.5c-9.2,4.4-16.8,10.6-22.6,18.6c-5.9,8-10.2,17.6-13.1,28.7
			c-2.9,11.1-4.3,23.3-4.3,36.7v114.7H1721V70z"/>
		<path id="XMLID_29_" class="st5" d="M2211,407.5c-14.1,18.1-29.5,30.8-46.3,38c-16.8,7.2-36.2,10.8-58.4,10.8
			c-18.4,0-35-3.3-49.8-9.8c-14.8-6.5-27.2-15.3-37.5-26.4c-10.2-11.1-18.1-24.1-23.6-39.2c-5.5-15.1-8.3-31.2-8.3-48.3
			c0-18.1,3-34.8,9.1-50.1c6-15.3,14.4-28.3,25.2-39.2c10.7-10.9,23.5-19.4,38.2-25.4c14.8-6,30.8-9.1,48.3-9.1
			c16.4,0,31.5,2.8,45.3,8.3c13.7,5.5,25.6,13.6,35.5,24.1c9.9,10.6,17.5,23.5,22.9,38.7c3.4,9.6,5.7,20.1,7,31.4l49.9,0
			c0,0-0.9,31.9-0.9,33.1l-47.8,0.1h-190.1c0.7,10.1,3.1,19.7,7.3,28.9c4.2,9.2,9.6,17.3,16.3,24.1c6.7,6.9,14.6,12.3,23.6,16.3
			c9.1,4,18.9,6,29.7,6c17.1,0,31.5-3,43.3-9.1c11.7-6,22.3-14.9,31.7-26.7L2211,407.5z M2177.3,311.4c-0.7-20.1-7.2-36.2-19.6-48.3
			c-12.4-12.1-29.5-18.1-51.3-18.1c-21.8,0-39.4,6-52.8,18.1c-13.4,12.1-21.5,28.2-24.1,48.3H2177.3z"/>
		<path id="XMLID_32_" class="st5" d="M2447.9,273.7c-8.4-10.1-17.4-17.4-27.2-21.9c-9.7-4.5-20.5-6.8-32.2-6.8
			c-13.1,0-24.6,2.3-34.7,6.8c-10.1,4.5-18.4,10.8-24.9,18.9c-6.5,8-11.5,17.4-14.8,27.9c-3.4,10.6-5,21.9-5,34
			c0,12.1,1.9,23.4,5.8,34c3.9,10.6,9.2,19.9,16.1,27.9c6.9,8,15.2,14.3,24.9,18.9c9.7,4.5,20.6,6.8,32.7,6.8
			c25.8,0,45.8-9.7,59.9-29.2l29.2,27.7c-11.4,13.1-24.8,22.6-40.2,28.7c-15.4,6-31.7,9.1-48.8,9.1c-18.1,0-34.7-3-49.8-9.1
			c-15.1-6-27.9-14.6-38.5-25.7c-10.6-11.1-18.8-24.1-24.6-39.2c-5.9-15.1-8.8-31.7-8.8-49.8c0-17.8,2.9-34.2,8.8-49.3
			c5.9-15.1,14.2-28.2,24.9-39.2c10.7-11.1,23.6-19.7,38.5-25.9c14.9-6.2,31.4-9.3,49.5-9.3c17.4,0,34,3,49.5,9.1
			c15.6,6,29.3,15.4,41,28.2L2447.9,273.7z"/>
		<path id="XMLID_34_" class="st5" d="M2522.9,70h39.2v248.5l107.1-103.6h55.8L2611.4,322l125.3,128.3h-57.8l-116.7-123.7v123.7
			h-39.2V70z"/>
	</g>
</g>
</svg>
