<?xml version="1.0" encoding="utf-8"?>
<!-- Generator: Adobe Illustrator 19.0.0, SVG Export Plug-In . SVG Version: 6.00 Build 0)  -->
<svg version="1.1" id="图层_1" xmlns="http://www.w3.org/2000/svg" xmlns:xlink="http://www.w3.org/1999/xlink" x="0px" y="0px"
	 viewBox="-701 376 37 18" style="enable-background:new -701 376 37 18;" xml:space="preserve">
<style type="text/css">
	.st0{fill:#7490D3;}
</style>
<title>Capa_1</title>
<desc>Created with Sketch.</desc>
<g id="Welcome">
	<g id="项目评审HD" transform="translate(-762.000000, -188.000000)">
		<g id="Group-2" transform="translate(583.000000, 177.000000)">
			<g id="Group">
			</g>
			<g id="it_1196648_easyicon.net" transform="translate(179.000000, 11.000000)">
				<g id="Capa_1">
					<g id="Group_1_">
						<path id="Shape" class="st0" d="M-691.3,376.7c-0.5-0.5-1.2-0.5-1.7,0l-7.6,7.6c-0.2,0.2-0.4,0.5-0.4,0.8
							c0,0.3,0.1,0.6,0.4,0.8l7.6,7.6c0.2,0.2,0.5,0.4,0.8,0.4c0.3,0,0.6-0.1,0.8-0.4c0.5-0.5,0.5-1.2,0-1.7l-6.7-6.7l6.8-6.7
							C-690.9,377.9-690.9,377.2-691.3,376.7L-691.3,376.7z"/>
						<path id="Shape_1_" class="st0" d="M-664.4,384.3l-7.6-7.6c-0.5-0.5-1.2-0.5-1.7,0c-0.5,0.5-0.5,1.2,0,1.7l6.7,6.7l-6.8,6.7
							c-0.5,0.5-0.5,1.2,0,1.7c0.2,0.2,0.5,0.4,0.8,0.4s0.6-0.1,0.8-0.4l7.6-7.6c0.2-0.2,0.4-0.5,0.4-0.8
							C-664,384.8-664.2,384.5-664.4,384.3L-664.4,384.3z"/>
						<path id="Shape_2_" class="st0" d="M-676,376.4c-0.5-0.4-1.3-0.3-1.7,0.2l-11.5,15.3c-0.4,0.5-0.3,1.3,0.2,1.7
							c0.2,0.2,0.5,0.2,0.7,0.2c0.4,0,0.7-0.2,1-0.5l11.5-15.3C-675.4,377.5-675.5,376.8-676,376.4L-676,376.4z"/>
					</g>
				</g>
			</g>
		</g>
	</g>
</g>
</svg>
