<?xml version="1.0" encoding="UTF-8" standalone="no"?>
<svg width="268px" height="519px" viewBox="0 0 268 519" version="1.1" xmlns="http://www.w3.org/2000/svg" xmlns:xlink="http://www.w3.org/1999/xlink">
    <!-- Generator: Sketch 3.8.3 (29802) - http://www.bohemiancoding.com/sketch -->
    <title>Artboard 15</title>
    <desc>Created with Sketch.</desc>
    <defs></defs>
    <g id="Welcome" stroke="none" stroke-width="1" fill="none" fill-rule="evenodd">
        <g id="Artboard-15">
            <rect id="Rectangle-124" fill="#F9FAFE" x="0" y="0" width="268" height="519" rx="8"></rect>
            <g id="Group-4" transform="translate(26.000000, 370.000000)">
                <text id="最终提交前独立评审" font-family="PingFangSC-Light, PingFang SC" font-size="18" font-weight="300" letter-spacing="0.540000021" fill="#376E58">
                    <tspan x="25.0699999" y="85">最终提交前独立评审</tspan>
                    <tspan x="34.3399999" y="110">评审过程互不可见</tspan>
                </text>
                <g id="1" transform="translate(81.000000, 0.000000)">
                    <g id="Layer_1">
                        <g id="Group">
                            <ellipse id="Oval" fill="#64BB9A" cx="32.5856164" cy="28.6678082" rx="14.2020548" ry="14.2020548"></ellipse>
                            <g fill="#1C1C1B">
                                <path d="M34.9589041,27.5 C34.9589041,23.4315068 31.6438356,20.1164384 27.5753425,20.1164384 C23.5068493,20.1164384 20.1917808,23.4315068 20.1917808,27.5 C20.1917808,31.5684932 23.5068493,34.8835616 27.5753425,34.8835616 C31.6438356,34.8835616 34.9589041,31.5684932 34.9589041,27.5 L34.9589041,27.5 Z M22.5650685,27.5 C22.5650685,24.75 24.8253425,22.489726 27.5753425,22.489726 C30.3253425,22.489726 32.5856164,24.75 32.5856164,27.5 C32.5856164,30.25 30.3253425,32.510274 27.5753425,32.510274 C24.8253425,32.510274 22.5650685,30.25 22.5650685,27.5 L22.5650685,27.5 Z" id="Shape"></path>
                                <path d="M53.7568493,26.2945205 L48.5205479,26.2945205 C47.9178082,15.6712329 39.4041096,7.15753425 28.7808219,6.55479452 L28.7808219,1.31849315 C28.7808219,0.678082192 28.2534247,0.150684932 27.6130137,0.150684932 C26.9726027,0.150684932 26.4452055,0.678082192 26.4452055,1.31849315 L26.4452055,6.55479452 C15.8219178,7.15753425 7.30821918,15.6712329 6.70547945,26.2945205 L1.35616438,26.2945205 C0.715753425,26.2945205 0.188356164,26.8219178 0.188356164,27.4623288 C0.188356164,28.1027397 0.715753425,28.630137 1.35616438,28.630137 L6.70547945,28.630137 C6.85616438,31.0410959 7.34589041,33.3767123 8.28767123,35.5993151 C8.4760274,36.0513699 8.92808219,36.3150685 9.38013699,36.3150685 C9.53082192,36.3150685 9.68150685,36.2773973 9.83219178,36.239726 C10.4349315,35.9760274 10.6986301,35.2979452 10.4726027,34.6952055 C9.64383562,32.7739726 9.19178082,30.739726 9.07876712,28.630137 L13.2979452,28.630137 C13.8630137,35.5993151 19.4383562,41.1746575 26.4452055,41.7773973 L26.4452055,45.9965753 C23.5821918,45.8082192 20.7945205,45.0171233 18.3082192,43.5856164 C17.7431507,43.2465753 17.0273973,43.4349315 16.6883562,44 C16.3493151,44.5650685 16.5376712,45.2808219 17.1027397,45.619863 C19.9280822,47.2773973 23.130137,48.2191781 26.4075342,48.4075342 L26.4075342,53.6438356 C26.4075342,54.2842466 26.9349315,54.8116438 27.5753425,54.8116438 C28.2157534,54.8116438 28.7431507,54.2842466 28.7431507,53.6438356 L28.7431507,48.4075342 C39.3664384,47.8047945 47.880137,39.2910959 48.4828767,28.6678082 L53.7191781,28.6678082 C54.359589,28.6678082 54.8869863,28.140411 54.8869863,27.5 C54.8869863,26.859589 54.3972603,26.2945205 53.7568493,26.2945205 L53.7568493,26.2945205 Z M46.1472603,26.2945205 L41.9280822,26.2945205 C41.3630137,19.3253425 35.7876712,13.75 28.7808219,13.1472603 L28.7808219,8.92808219 C38.0856164,9.53082192 45.5445205,16.989726 46.1472603,26.2945205 L46.1472603,26.2945205 Z M26.4075342,8.92808219 L26.4075342,13.1849315 C19.4383562,13.75 13.8630137,19.3253425 13.260274,26.3321918 L9.04109589,26.3321918 C9.60616438,16.989726 17.0650685,9.53082192 26.4075342,8.92808219 L26.4075342,8.92808219 Z M14.8424658,28.6678082 L16.1986301,28.6678082 C16.8390411,28.6678082 17.3664384,28.140411 17.3664384,27.5 C17.3664384,26.859589 16.8390411,26.3321918 16.1986301,26.3321918 L14.8424658,26.3321918 C15.4075342,20.2294521 20.2671233,15.3321918 26.4075342,14.7671233 L26.4075342,16.2363014 C26.4075342,16.8767123 26.9349315,17.4041096 27.5753425,17.4041096 C28.2157534,17.4041096 28.7431507,16.8767123 28.7431507,16.2363014 L28.7431507,14.7671233 C34.8458904,15.3321918 39.7431507,20.1917808 40.3082192,26.3321918 L38.8390411,26.3321918 C38.1986301,26.3321918 37.6712329,26.859589 37.6712329,27.5 C37.6712329,28.140411 38.1986301,28.6678082 38.8390411,28.6678082 L40.3082192,28.6678082 C39.7431507,34.7705479 34.8835616,39.6678082 28.7431507,40.2328767 L28.7431507,38.7636986 C28.7431507,38.1232877 28.2157534,37.5958904 27.5753425,37.5958904 C26.9349315,37.5958904 26.4075342,38.1232877 26.4075342,38.7636986 L26.4075342,40.2328767 C20.2671233,39.6678082 15.4075342,34.8082192 14.8424658,28.6678082 L14.8424658,28.6678082 Z M28.7808219,46.0342466 L28.7808219,41.8150685 C35.75,41.25 41.3253425,35.6746575 41.9280822,28.6678082 L46.1472603,28.6678082 C45.5445205,38.010274 38.0856164,45.4691781 28.7808219,46.0342466 L28.7808219,46.0342466 Z" id="Shape"></path>
                                <ellipse id="Oval" cx="12.8458904" cy="40.3458904" rx="1.31849315" ry="1.31849315"></ellipse>
                            </g>
                        </g>
                    </g>
                </g>
            </g>
            <g id="Group-2" transform="translate(26.000000, 41.000000)">
                <text id="您可以邀请好友或者资深评审者为您的项目评" font-family="PingFangSC-Light, PingFang SC" font-size="18" font-weight="300" letter-spacing="0.540000021" fill="#376E58">
                    <tspan x="6.52999988" y="82">您可以邀请好友或者资深</tspan>
                    <tspan x="15.7999999" y="107">评审者为您的项目评审</tspan>
                </text>
                <g id="2" transform="translate(83.000000, 0.000000)">
                    <g id="Layer_1">
                        <g id="Group">
                            <path d="M40.584,6.34876033 C45.79,7.33719008 55.442,9.12396694 55.442,9.12396694 C57.494,11.1768595 57.494,14.5603306 55.442,16.6132231 L42.37,21.4033058 C40.166,22.2016529 38,23.2661157 35.872,24.292562 C34.428,24.9768595 32.718,24.9768595 31.236,24.292562 C29.374,23.3801653 27.474,22.5438017 25.536,21.8975207 L11.666,17.4495868 C9.614,15.3966942 9.614,12.0132231 11.666,9.96033058 L23.788,6.46280992 C26.106,5.93057851 27.056,4.94214876 30.78,4.37190083 C32.376,4.14380165 34.39,3.99173554 35.834,4.67603306 C37.392,5.47438017 38.95,6.0446281 40.584,6.34876033 L40.584,6.34876033 Z" id="Shape" fill="#64BB9A"></path>
                            <g fill="#1C1C1B">
                                <path d="M51.68,8.70578512 L33.934,1.48264463 C33.782,1.4446281 30.514,0.190082645 27.322,0.114049587 L27.056,0.114049587 C23.902,0.114049587 21.052,1.48264463 21.014,1.48264463 L3.002,8.47768595 C1.9,8.89586777 0,10.1504132 0,12.1272727 C0,14.0280992 1.558,15.2826446 2.508,15.738843 L10.64,19.3884298 L10.64,26.5355372 C10.64,27.1818182 11.134,27.6760331 11.78,27.6760331 C12.426,27.6760331 12.92,27.1818182 12.92,26.5355372 L12.92,20.414876 L20.14,23.6842975 C20.292,23.7603306 23.902,25.3190083 27.474,25.3190083 C31.084,25.3190083 34.542,23.4942149 34.618,23.4561983 L42.826,19.8446281 L42.826,38.8909091 C42.826,41.4760331 40.736,43.6049587 38.114,43.6049587 L17.594,43.6049587 C15.01,43.6049587 12.882,41.5140496 12.882,38.8909091 C12.882,38.2446281 12.388,37.7504132 11.742,37.7504132 C11.096,37.7504132 10.602,38.2446281 10.602,38.8909091 C10.602,42.7305785 13.718,45.8859504 17.594,45.8859504 L38.114,45.8859504 C41.952,45.8859504 45.106,42.768595 45.106,38.8909091 L45.106,18.8181818 L48.108,17.4876033 L48.108,32.846281 C48.108,33.2644628 48.45,33.6066116 48.868,33.6066116 C49.286,33.6066116 49.628,33.2644628 49.628,32.846281 L49.628,16.8033058 L52.25,15.6628099 C52.478,15.5487603 54.568,14.4082645 54.568,12.2793388 C54.606,10.0363636 51.984,8.85785124 51.68,8.70578512 L51.68,8.70578512 Z M51.3,13.6479339 L48.412,14.9024793 L36.594,10.1123967 C36.214,9.96033058 35.758,10.1504132 35.606,10.5305785 C35.454,10.9107438 35.644,11.3669421 36.024,11.5190083 L46.474,15.738843 L43.586,17.031405 L43.586,17.031405 L33.668,21.4033058 C33.63,21.4033058 30.59,23.0380165 27.55,23.0380165 C24.472,23.0380165 21.166,21.5933884 21.166,21.5933884 L3.534,13.6479339 C3.534,13.6479339 2.318,13.0396694 2.318,12.0892562 C2.318,11.4049587 3.382,10.7966942 3.876,10.568595 L21.964,3.53553719 C22.002,3.53553719 24.472,2.35702479 27.094,2.35702479 L27.284,2.35702479 C30.058,2.43305785 33.098,3.57355372 33.098,3.57355372 L50.806,10.7586777 C51.3,10.9867769 52.326,11.6330579 52.326,12.2793388 C52.326,12.9636364 51.528,13.5338843 51.3,13.6479339 L51.3,13.6479339 Z" id="Shape"></path>
                                <ellipse id="Oval" cx="11.704" cy="32.8082645" rx="1.254" ry="1.25454545"></ellipse>
                            </g>
                        </g>
                    </g>
                </g>
            </g>
            <g id="Group-3" transform="translate(26.000000, 196.000000)">
                <text id="可多次提交评审" font-family="PingFangSC-Light, PingFang SC" font-size="18" font-weight="300" letter-spacing="0.540000021" fill="#376E58">
                    <tspan x="43.6099999" y="101">可多次提交评审</tspan>
                    <tspan x="62.1499999" y="126">碎片化评审</tspan>
                </text>
                <g id="3" transform="translate(89.000000, 0.000000)">
                    <g id="Layer_1">
                        <g id="Group">
                            <path d="M37.2819048,65.8688742 L12.3980952,65.8688742 C9.50666667,65.8688742 7.14095238,63.5086093 7.14095238,60.6238411 L7.14095238,34.6172185 C7.14095238,31.7324503 9.50666667,29.3721854 12.3980952,29.3721854 L37.2819048,29.3721854 C40.1733333,29.3721854 42.5390476,31.7324503 42.5390476,34.6172185 L42.5390476,60.6238411 C42.5390476,63.5086093 40.1733333,65.8688742 37.2819048,65.8688742 L37.2819048,65.8688742 Z" id="Shape" fill="#64BB9A"></path>
                            <g fill="#1C1C1B">
                                <path d="M40.9619048,31.3390728 C40.6552381,27.0993377 37.1504762,23.7337748 32.8133333,23.7337748 L8.71809524,23.7337748 C4.20571429,23.7337748 0.525714286,27.405298 0.525714286,31.9072848 L0.525714286,40.7364238 C0.525714286,41.4794702 1.13904762,42.0913907 1.88380952,42.0913907 C2.62857143,42.0913907 3.24190476,41.4794702 3.24190476,40.7364238 L3.24190476,31.9072848 C3.24190476,28.8913907 5.6952381,26.4 8.76190476,26.4 L32.8571429,26.4 C35.88,26.4 38.3771429,28.8476821 38.3771429,31.9072848 L38.3771429,55.2039735 C38.3771429,58.2198675 35.9238095,60.7112583 32.8571429,60.7112583 L8.76190476,60.7112583 C5.73904762,60.7112583 3.24190476,58.2198675 3.24190476,55.2039735 C3.24190476,54.4609272 2.62857143,53.8490066 1.88380952,53.8490066 C1.13904762,53.8490066 0.525714286,54.4609272 0.525714286,55.2039735 C0.525714286,59.7059603 4.20571429,63.3774834 8.71809524,63.3774834 L32.8133333,63.3774834 C37.1504762,63.3774834 40.6552381,60.0119205 40.9619048,55.7721854 C43.6780952,55.6410596 45.8247619,53.4119205 45.8247619,50.7019868 L45.8247619,36.3655629 C45.8685714,33.6993377 43.6780952,31.4701987 40.9619048,31.3390728 L40.9619048,31.3390728 Z M44.072381,50.7456954 C44.072381,52.4940397 42.7142857,53.8927152 41.0495238,54.0238411 L41.0495238,33.1311258 C42.7580952,33.2622517 44.072381,34.7046358 44.072381,36.4092715 L44.072381,50.7456954 L44.072381,50.7456954 Z" id="Shape"></path>
                                <path d="M17.3485714,21.8980132 C17.567619,21.8980132 17.7428571,21.810596 17.9180952,21.6794702 C18.312381,21.3735099 18.3561905,20.805298 18.0495238,20.4119205 C17.567619,19.8437086 16.3409524,18.007947 16.472381,16.5218543 C16.56,15.4291391 17.3047619,14.2490066 17.9619048,13.0688742 C18.6190476,12.0198675 19.232381,10.9708609 19.3638095,10.0092715 C19.6704762,7.82384106 18.1371429,5.68211921 18.0933333,5.59470199 C17.7866667,5.2013245 17.2609524,5.11390728 16.8666667,5.37615894 C16.472381,5.68211921 16.3847619,6.20662252 16.647619,6.6 C16.647619,6.6 17.8304762,8.30463576 17.6114286,9.74701987 C17.5238095,10.3589404 16.9980952,11.2331126 16.472381,12.1072848 C15.727619,13.3748344 14.8514286,14.8172185 14.72,16.3033113 C14.5009524,18.794702 16.6038095,21.3735099 16.6914286,21.5046358 C16.8666667,21.7668874 17.1295238,21.8980132 17.3485714,21.8980132 L17.3485714,21.8980132 Z" id="Shape"></path>
                                <path d="M24.84,16.9152318 C25.0590476,16.9152318 25.2342857,16.8278146 25.4095238,16.6966887 C25.8038095,16.3907285 25.847619,15.8225166 25.5409524,15.4291391 C25.0590476,14.8609272 23.832381,13.0251656 23.9638095,11.5390728 C24.0514286,10.4463576 24.7961905,9.26622517 25.4533333,8.08609272 C26.1104762,7.03708609 26.7238095,5.98807947 26.8552381,5.02649007 C27.1619048,2.8410596 25.6285714,0.699337748 25.5847619,0.61192053 C25.2780952,0.218543046 24.752381,0.131125828 24.3580952,0.393377483 C23.9638095,0.699337748 23.8761905,1.22384106 24.1390476,1.61721854 C24.1390476,1.61721854 25.3219048,3.3218543 25.1028571,4.76423841 C25.0152381,5.37615894 24.4895238,6.25033113 23.9638095,7.16821192 C23.2190476,8.43576159 22.3428571,9.8781457 22.2114286,11.3642384 C21.992381,13.8556291 24.0952381,16.4344371 24.1828571,16.5655629 C24.3580952,16.784106 24.6209524,16.9152318 24.84,16.9152318 L24.84,16.9152318 Z" id="Shape"></path>
                                <ellipse id="Oval" cx="1.79619048" cy="47.992053" rx="1.48952381" ry="1.48609272"></ellipse>
                            </g>
                        </g>
                    </g>
                </g>
            </g>
        </g>
    </g>
</svg>