<?xml version="1.0" encoding="utf-8"?>
<!-- Generator: Adobe Illustrator 19.0.0, SVG Export Plug-In . SVG Version: 6.00 Build 0)  -->
<svg version="1.1" id="图层_1" xmlns="http://www.w3.org/2000/svg" xmlns:xlink="http://www.w3.org/1999/xlink" x="0px" y="0px"
	 viewBox="0 0 529.3 529.3" style="enable-background:new 0 0 529.3 529.3;" xml:space="preserve">
<style type="text/css">
	.st0{fill:url(#XMLID_58_);}
	.st1{fill:url(#XMLID_59_);}
	.st2{fill:url(#XMLID_60_);}
</style>
<g id="XMLID_9_">
	<linearGradient id="XMLID_58_" gradientUnits="userSpaceOnUse" x1="10.3656" y1="279.4269" x2="160.8612" y2="279.4269">
		<stop  offset="0" style="stop-color:#7F96FF"/>
		<stop  offset="1" style="stop-color:#7595E0"/>
	</linearGradient>
	<path id="XMLID_14_" class="st0" d="M10.4,191.1l147.4,185.2l3.1-8.1L13,182.5C12.1,185.3,11.2,188.2,10.4,191.1z"/>
	<linearGradient id="XMLID_59_" gradientUnits="userSpaceOnUse" x1="22.8685" y1="246.3614" x2="173.268" y2="246.3614">
		<stop  offset="0" style="stop-color:#7F96FF"/>
		<stop  offset="1" style="stop-color:#7595E0"/>
	</linearGradient>
	<path id="XMLID_15_" class="st1" d="M22.9,156.9l147.7,185.6l2.7-7.2L26,150.2C24.9,152.4,23.9,154.7,22.9,156.9z"/>
	<linearGradient id="XMLID_60_" gradientUnits="userSpaceOnUse" x1="0" y1="264.6667" x2="529.3334" y2="264.6667">
		<stop  offset="0" style="stop-color:#7F96FF"/>
		<stop  offset="1" style="stop-color:#7595E0"/>
	</linearGradient>
	<path id="XMLID_16_" class="st2" d="M271.1,378.2c-0.6,0.5-1,0.8-1.7,0l-71.9-86c-0.4-0.5-0.2-1.2,0.3-1.7
		c0,0,158.5-133,222.4-239.9C376.6,18.8,322.8,0,264.7,0c-96,0-180.1,51.1-226.5,127.7L183,309.6l2.9-7.7c1.1-3,5-3.6,7-1.2
		l66.6,81.2c2,2.4,0.6,6.1-2.5,6.6l-97.6,16.1c-1.6,0.8-3.5,1.1-5.2,0.9l-0.8,0.1c-2.1,0.4-4-1-4.6-2.8c-0.2-0.2-0.4-0.5-0.6-0.7
		L3.7,220.6c-2.4,14.3-3.7,29-3.7,44c0,146.2,118.5,264.7,264.7,264.7s264.7-118.5,264.7-264.7c0-31.3-5.5-61.4-15.5-89.3
		L271.1,378.2z"/>
</g>
</svg>
