<?xml version="1.0" encoding="utf-8"?>
<!-- Generator: Adobe Illustrator 19.0.0, SVG Export Plug-In . SVG Version: 6.00 Build 0)  -->
<svg version="1.1" id="Layer_1" xmlns="http://www.w3.org/2000/svg" xmlns:xlink="http://www.w3.org/1999/xlink" x="0px" y="0px"
	 viewBox="-684 350.2 70.1 69.8" style="enable-background:new -684 350.2 70.1 69.8;" xml:space="preserve">
<style type="text/css">
	.st0{fill:#C2C2C2;}
	.st1{fill:#858585;}
	.st2{fill:#929292;}
	.st3{fill:#A0A0A0;}
	.st4{fill:#212121;}
	.st5{fill:#2F2F2F;}
	.st6{fill:#464646;}
	.st7{fill:#BCBCBC;}
</style>
<circle class="st0" cx="-649" cy="385.1" r="34.9"/>
<g>
	<path class="st1" d="M-654,399.1c-4.8,0-5-7-5-7v-6h10v6C-649,392.1-649.2,399.1-654,399.1z"/>
	<g>
		<circle class="st2" cx="-645" cy="380.1" r="2"/>
		<circle class="st2" cx="-663" cy="380.1" r="2"/>
	</g>
	<path class="st3" d="M-645,374.1c0-7.6-18-5-18,0c0,1.1,0,5.9,0,7c0,5,4,9,9,9s9-4,9-9C-645,380-645,375.2-645,374.1z"/>
	<path class="st4" d="M-654,365.1c-6.1,0-10,4.9-10,11c0,0.8,0,2.3,0,2.3l2,1.7v-5l12-4l4,4v5l2-1.7c0,0,0-1.5,0-2.3c0-4-1-8-6-9
		l-1-2H-654z"/>
	<g>
		<circle class="st5" cx="-650" cy="380.1" r="1"/>
		<circle class="st5" cx="-658" cy="380.1" r="1"/>
	</g>
	<g>
		<path class="st6" d="M-649,392.1L-649,392.1c0,0-1.8,2-5,2s-5-2-5-2s-11,2-11,13h32C-638,394.1-649,392.1-649,392.1z"/>
	</g>
	<g>
		
			<rect x="-639.9" y="367.2" transform="matrix(0.7071 0.7071 -0.7071 0.7071 77.1932 557.9686)" class="st1" width="9.9" height="9.9"/>
		<rect x="-640" y="367.1" class="st1" width="10" height="10"/>
	</g>
	<circle class="st7" cx="-635" cy="372.1" r="3"/>
</g>
</svg>
