<?xml version="1.0" encoding="utf-8"?>
<!-- Generator: Adobe Illustrator 19.0.0, SVG Export Plug-In . SVG Version: 6.00 Build 0)  -->
<svg version="1.1" id="图层_1" xmlns="http://www.w3.org/2000/svg" xmlns:xlink="http://www.w3.org/1999/xlink" x="0px" y="0px"
	 viewBox="-682.6 349.3 70.9 71" style="enable-background:new -682.6 349.3 70.9 71;" xml:space="preserve">
<style type="text/css">
	.st0{fill:#D9E8E2;}
	.st1{fill:#FF9800;}
	.st2{fill:#FFA726;}
	.st3{fill:#FFB74D;}
	.st4{fill:#424242;}
	.st5{fill:#784719;}
	.st6{fill:#009688;}
	.st7{fill:#FFEB3B;}
	.st8{fill:#080808;fill-opacity:0.4;}
	.st9{fill:none;stroke:#FE9974;stroke-width:2;}
</style>
<title>Group 3</title>
<desc>Created with Sketch.</desc>
<g id="Page-1">
	<g id="Artboard-1-Copy" transform="translate(-14.000000, -13.000000)">
		<g id="Group-3" transform="translate(14.000000, 13.000000)">
			<g id="portrait">
				<circle id="Oval" class="st0" cx="-647.2" cy="384.8" r="35.5"/>
				<g id="Group" transform="translate(14.000000, 15.000000)">
					<path id="Shape" class="st1" d="M-666.8,383.2c-4.8,0-5-7-5-7v-6h10v6C-661.8,376.2-662,383.2-666.8,383.2L-666.8,383.2z"/>
					<g id="Oval_1_" transform="translate(5.000000, 13.000000)">
						<circle class="st2" cx="-662.8" cy="351.2" r="2"/>
						<circle class="st2" cx="-680.8" cy="351.2" r="2"/>
					</g>
					<path id="Shape_1_" class="st3" d="M-657.8,358.2c0-7.6-18-5-18,0v7c0,5,4,9,9,9s9-4,9-9V358.2L-657.8,358.2z"/>
					<path id="Shape_2_" class="st4" d="M-666.8,349.2c-6.1,0-10,4.9-10,11v2.3l2,1.7v-5l12-4l4,4v5l2-1.7v-2.3c0-4-1-8-6-9l-1-2
						H-666.8L-666.8,349.2z"/>
					<g id="Oval_2_" transform="translate(11.000000, 14.000000)">
						<circle class="st5" cx="-673.8" cy="350.2" r="1"/>
						<circle class="st5" cx="-681.8" cy="350.2" r="1"/>
					</g>
					<path id="Shape_3_" class="st6" d="M-661.8,376.2L-661.8,376.2c0,0-1.8,2-5,2s-5-2-5-2s-11,2-11,13h32
						C-650.8,378.2-661.8,376.2-661.8,376.2L-661.8,376.2z"/>
					<g id="Rectangle-path" transform="translate(28.000000, 0.000000)">
						
							<rect x="-680.7" y="351.4" transform="matrix(-0.7071 -0.7071 0.7071 -0.7071 -1405.5251 130.469)" class="st1" width="9.9" height="9.9"/>
						<rect x="-680.8" y="351.2" class="st1" width="10" height="10"/>
					</g>
					<circle id="Oval_3_" class="st7" cx="-647.8" cy="356.2" r="3"/>
				</g>
			</g>
			<g id="no" transform="translate(1.000000, 1.000000)">
				<g id="Layer_1">
					<path id="Oval_4_" class="st8" d="M-648,419.4c19.6,0,35.5-15.9,35.5-35.5c0-19.6-15.9-35.5-35.5-35.5s-35.5,15.9-35.5,35.5
						C-683.5,403.5-667.6,419.4-648,419.4z"/>
					<g id="Group-2" transform="translate(20.000000, 20.000000)">
						<path id="Shape_4_" class="st9" d="M-682.9,379l29.7-29.9"/>
						<path id="Shape_5_" class="st9" d="M-683,349.2l29.9,29.7"/>
					</g>
				</g>
			</g>
		</g>
	</g>
</g>
</svg>
