<?xml version="1.0" encoding="utf-8"?>
<!-- Generator: Adobe Illustrator 19.0.0, SVG Export Plug-In . SVG Version: 6.00 Build 0)  -->
<svg version="1.1" id="图层_1" xmlns="http://www.w3.org/2000/svg" xmlns:xlink="http://www.w3.org/1999/xlink" x="0px" y="0px"
	 viewBox="-654.2 349.9 71.2 71" style="enable-background:new -654.2 349.9 71.2 71;" xml:space="preserve">
<style type="text/css">
	.st0{fill:#D9E8E2;}
	.st1{fill:#FF9800;}
	.st2{fill:#FFA726;}
	.st3{fill:#FFB74D;}
	.st4{fill:#424242;}
	.st5{fill:#784719;}
	.st6{fill:#009688;}
	.st7{fill:#FFEB3B;}
	.st8{fill:#080808;fill-opacity:0.4;}
	.st9{fill:none;stroke:#5AD4A6;stroke-width:2;}
</style>
<title>Artboard 1</title>
<desc>Created with Sketch.</desc>
<g id="Page-1">
	<g id="Artboard-1">
		<g id="Group-2" transform="translate(14.000000, 13.000000)">
			<g id="portrait">
				<circle id="Oval" class="st0" cx="-632.7" cy="372.4" r="35.5"/>
				<g id="Group" transform="translate(14.000000, 15.000000)">
					<path id="Shape" class="st1" d="M-652.3,370.8c-4.8,0-5-7-5-7v-6h10v6C-647.3,363.8-647.5,370.8-652.3,370.8L-652.3,370.8z"/>
					<g id="Oval_1_" transform="translate(5.000000, 13.000000)">
						<circle class="st2" cx="-648.3" cy="338.8" r="2"/>
						<circle class="st2" cx="-666.3" cy="338.8" r="2"/>
					</g>
					<path id="Shape_1_" class="st3" d="M-643.3,345.8c0-7.6-18-5-18,0v7c0,5,4,9,9,9s9-4,9-9V345.8L-643.3,345.8z"/>
					<path id="Shape_2_" class="st4" d="M-652.3,336.8c-6.1,0-10,4.9-10,11v2.3l2,1.7v-5l12-4l4,4v5l2-1.7v-2.3c0-4-1-8-6-9l-1-2
						H-652.3L-652.3,336.8z"/>
					<g id="Oval_2_" transform="translate(11.000000, 14.000000)">
						<circle class="st5" cx="-659.3" cy="337.8" r="1"/>
						<circle class="st5" cx="-667.3" cy="337.8" r="1"/>
					</g>
					<path id="Shape_3_" class="st6" d="M-647.3,363.8L-647.3,363.8c0,0-1.8,2-5,2c-3.2,0-5-2-5-2s-11,2-11,13h32
						C-636.3,365.8-647.3,363.8-647.3,363.8L-647.3,363.8z"/>
					<g id="Rectangle-path" transform="translate(28.000000, 0.000000)">
						
							<rect x="-666.2" y="338.9" transform="matrix(0.7071 0.7071 -0.7071 0.7071 49.4644 568.312)" class="st1" width="9.9" height="9.9"/>
						<rect x="-666.3" y="338.8" class="st1" width="10" height="10"/>
					</g>
					<circle id="Oval_3_" class="st7" cx="-633.3" cy="343.8" r="3"/>
				</g>
			</g>
			<g id="yes" transform="translate(1.000000, 1.000000)">
				<g id="Layer_1">
					<circle id="Oval_4_" class="st8" cx="-633.5" cy="371.5" r="35.5"/>
					<polyline id="Shape_4_" class="st9" points="-651,372 -639,384 -615,360 					"/>
				</g>
			</g>
		</g>
	</g>
</g>
</svg>
