<?xml version="1.0" encoding="UTF-8" standalone="no"?>
<svg width="100px" height="98px" viewBox="0 0 100 98" version="1.1" xmlns="http://www.w3.org/2000/svg" xmlns:xlink="http://www.w3.org/1999/xlink">
    <!-- Generator: Sketch 3.8.3 (29802) - http://www.bohemiancoding.com/sketch -->
    <title>Artboard 1</title>
    <desc>Created with Sketch.</desc>
    <defs></defs>
    <g id="Page-1" stroke="none" stroke-width="1" fill="none" fill-rule="evenodd">
        <g id="Artboard-1">
            <g id="Group-2" transform="translate(14.000000, 13.000000)">
                <g id="portrait">
                    <circle id="Oval" fill="#D9E8E2" cx="36.3" cy="36.4" r="35.5"></circle>
                    <g id="Group" transform="translate(14.000000, 15.000000)">
                        <path d="M16.7,34.8 C11.9,34.8 11.7,27.8 11.7,27.8 L11.7,21.8 L21.7,21.8 L21.7,27.8 C21.7,27.8 21.5,34.8 16.7,34.8 L16.7,34.8 Z" id="Shape" fill="#FF9800"></path>
                        <g transform="translate(5.000000, 13.000000)" id="Oval" fill="#FFA726">
                            <circle cx="20.7" cy="2.8" r="2"></circle>
                            <circle cx="2.7" cy="2.8" r="2"></circle>
                        </g>
                        <path d="M25.7,9.8 C25.7,2.2 7.7,4.8 7.7,9.8 L7.7,16.8 C7.7,21.8 11.7,25.8 16.7,25.8 C21.7,25.8 25.7,21.8 25.7,16.8 L25.7,9.8 L25.7,9.8 Z" id="Shape" fill="#FFB74D"></path>
                        <path d="M16.7,0.8 C10.6,0.8 6.7,5.7 6.7,11.8 L6.7,14.1 L8.7,15.8 L8.7,10.8 L20.7,6.8 L24.7,10.8 L24.7,15.8 L26.7,14.1 L26.7,11.8 C26.7,7.8 25.7,3.8 20.7,2.8 L19.7,0.8 L16.7,0.8 L16.7,0.8 Z" id="Shape" fill="#424242"></path>
                        <g transform="translate(11.000000, 14.000000)" id="Oval" fill="#784719">
                            <circle cx="9.7" cy="1.8" r="1"></circle>
                            <circle cx="1.7" cy="1.8" r="1"></circle>
                        </g>
                        <path d="M21.7,27.8 L21.7,27.8 C21.7,27.8 19.9,29.8 16.7,29.8 C13.5,29.8 11.7,27.8 11.7,27.8 C11.7,27.8 0.7,29.8 0.7,40.8 L32.7,40.8 C32.7,29.8 21.7,27.8 21.7,27.8 L21.7,27.8 Z" id="Shape" fill="#009688"></path>
                        <g transform="translate(28.000000, 0.000000)" id="Rectangle-path" fill="#FF9800">
                            <rect transform="translate(7.719020, 7.864750) rotate(225.000000) translate(-7.719020, -7.864750) " x="2.76906747" y="2.91479747" width="9.89990506" height="9.89990506"></rect>
                            <rect x="2.7" y="2.8" width="10" height="10"></rect>
                        </g>
                        <circle id="Oval" fill="#FFEB3B" cx="35.7" cy="7.8" r="3"></circle>
                    </g>
                </g>
                <g id="yes" transform="translate(1.000000, 1.000000)">
                    <g id="Layer_1">
                        <circle id="Oval" fill-opacity="0.4" fill="#080808" cx="35.5" cy="35.5" r="35.5"></circle>
                        <polyline id="Shape" stroke="#5AD4A6" stroke-width="2" points="18 36 30 48 54 24"></polyline>
                    </g>
                </g>
            </g>
        </g>
    </g>
</svg>