<?xml version="1.0" encoding="utf-8"?>
<!-- Generator: Adobe Illustrator 19.0.0, SVG Export Plug-In . SVG Version: 6.00 Build 0)  -->
<svg version="1.1" id="图层_1" xmlns="http://www.w3.org/2000/svg" xmlns:xlink="http://www.w3.org/1999/xlink" x="0px" y="0px"
	 viewBox="0 0 400 400" style="enable-background:new 0 0 400 400;" xml:space="preserve">
<style type="text/css">
	.st0{fill:#965A8F;}
	.st1{fill:#BC7193;}
	.st2{fill:#E7AEA1;}
	.st3{fill:#FFE6E7;}
</style>
<g id="XMLID_9_">
	<polygon id="XMLID_7_" class="st0" points="107.9,357 179.8,113.8 217.8,124.7 255.6,136.2 183.7,379.4 149.1,353.4 	"/>
	<polygon id="XMLID_6_" class="st1" points="216.3,360 138,118.7 175.5,106.3 213.2,94.4 291.4,335.6 248.1,333.7 	"/>
	<polygon id="XMLID_5_" class="st2" points="301.3,223.9 279.4,238.3 264.7,259.9 239,264.8 217.2,279.1 191.6,273.8 165.9,278.7 
		144.3,264 118.7,258.7 104.4,236.9 82.8,222.2 77.9,196.5 63.5,174.6 68.8,149 63.9,123.4 78.6,101.8 84,76.2 105.8,61.8 
		120.5,40.2 146.2,35.3 168,21 193.6,26.3 219.3,21.4 240.9,36.1 266.5,41.4 280.8,63.2 302.4,77.9 307.3,103.6 321.7,125.5 
		316.4,151.1 321.3,176.7 306.6,198.3 	"/>
	<path id="XMLID_4_" class="st3" d="M277.9,143.1c4.1,52.7-39.5,96.3-92.2,92.2c-41.5-3.3-75.1-36.9-78.3-78.3
		c-4.2-52.7,39.5-96.4,92.2-92.2C241,68.1,274.6,101.7,277.9,143.1z"/>
	<g id="XMLID_10_">
		<g id="XMLID_57_">
			<path id="XMLID_60_" class="st1" d="M149.7,176.2v-10.7H139v-10.7h10.7v-10.7H139v-10.7h10.7v-10.7h10.7v10.7h10.7v-10.7h10.7
				v10.7h10.7v10.7h-10.7v10.7h10.7v10.7h-10.7v10.7h-10.7v-10.7h-10.7v10.7H149.7z M160.4,154.8h10.7v-10.7h-10.7V154.8z"/>
			<path id="XMLID_58_" class="st1" d="M208.7,186.9v-10.7h10.7v-45.7h-7.9v-7.9l7.9-10.7h10.7v64.3h10.7v10.7H208.7z"/>
		</g>
	</g>
</g>
</svg>
