<?xml version="1.0" encoding="utf-8"?>
<!-- Generator: Adobe Illustrator 19.0.0, SVG Export Plug-In . SVG Version: 6.00 Build 0)  -->
<svg version="1.1" id="图层_1" xmlns="http://www.w3.org/2000/svg" xmlns:xlink="http://www.w3.org/1999/xlink" x="0px" y="0px"
	 viewBox="0 0 400 400" style="enable-background:new 0 0 400 400;" xml:space="preserve">
<style type="text/css">
	.st0{fill:#FCEEB4;}
	.st1{fill:#66CC9B;}
	.st2{fill:#E7AE3B;}
	.st3{fill:#FFE681;}
	.st4{fill:#BC712D;}
</style>
<g id="XMLID_2_">
	<rect id="XMLID_22_" x="23.5" y="54.1" class="st0" width="352.9" height="289.7"/>
	<g id="XMLID_16_">
		<polygon id="XMLID_21_" class="st1" points="309.3,361.9 309.3,56.1 326.5,55.8 343.7,56.1 343.7,361.9 326.1,343.6 		"/>
		<polygon id="XMLID_20_" class="st2" points="361,326.8 354.1,331.4 349.4,338.2 341.3,339.8 334.3,344.3 326.2,342.6 318.1,344.2 
			311.2,339.5 303.1,337.8 298.5,330.9 291.7,326.3 290.1,318.1 285.6,311.2 287.2,303.1 285.7,294.9 290.4,288.1 292,279.9 
			299,275.4 303.6,268.5 311.8,267 318.7,262.4 326.8,264.1 335,262.5 341.8,267.2 350,268.9 354.5,275.8 361.4,280.5 362.9,288.6 
			367.5,295.6 365.8,303.7 367.3,311.8 362.7,318.7 		"/>
		<path id="XMLID_17_" class="st3" d="M353.3,298.8c3,18.6-12.8,34.4-31.4,31.3c-11.2-1.8-20.3-10.9-22.2-22.2
			c-3.1-18.6,12.8-34.4,31.4-31.4C342.4,278.5,351.5,287.5,353.3,298.8z"/>
	</g>
	<g id="XMLID_3_">
		<g id="XMLID_14_">
			<rect id="XMLID_15_" x="73.5" y="115.7" class="st4" width="206.4" height="3.3"/>
		</g>
		<g id="XMLID_12_">
			<rect id="XMLID_13_" x="73.5" y="144" class="st4" width="206.4" height="3.3"/>
		</g>
		<g id="XMLID_10_">
			<rect id="XMLID_11_" x="73.5" y="172.3" class="st4" width="206.4" height="3.3"/>
		</g>
		<g id="XMLID_8_">
			<rect id="XMLID_9_" x="73.5" y="200.6" class="st4" width="206.4" height="3.3"/>
		</g>
		<g id="XMLID_6_">
			<rect id="XMLID_7_" x="73.5" y="228.9" class="st4" width="206.4" height="3.3"/>
		</g>
		<g id="XMLID_4_">
			<rect id="XMLID_5_" x="73.5" y="257.2" class="st4" width="140.7" height="3.3"/>
		</g>
	</g>
</g>
</svg>
