<?xml version="1.0" encoding="utf-8"?>
<!-- Generator: Adobe Illustrator 19.0.0, SVG Export Plug-In . SVG Version: 6.00 Build 0)  -->
<svg version="1.1" id="图层_1" xmlns="http://www.w3.org/2000/svg" xmlns:xlink="http://www.w3.org/1999/xlink" x="0px" y="0px"
	 viewBox="0 0 400 400" style="enable-background:new 0 0 400 400;" xml:space="preserve">
<style type="text/css">
	.st0{fill:#85CFFF;}
	.st1{fill:#0095FF;}
	.st2{fill:#854DFF;}
	.st3{fill:#6D97FF;}
</style>
<g id="XMLID_2_">
	<path id="XMLID_27_" class="st0" d="M198.5,109.3c-23.8,66.5-38.9,133.5-38.9,133.5c-9.1-34.3-31.9-87.2-38.4-102
		c-0.5,0.1-1.1,0.1-1.7,0.2c0.3,36.4-17.1,107.3-17.1,107.3c-10.4-30.4-53.1-82.9-55.2-85.5c0,0,0,0-0.1,0
		c5.3,32.3,9.8,153.2,9.8,153.2h141.8V109.4C198.7,109.4,198.6,109.3,198.5,109.3"/>
	<path id="XMLID_24_" class="st1" d="M204,108.3c4.4-2,7.6-6.4,7.6-11.6c0-7-5.7-12.7-12.7-12.7c-7,0-12.7,5.7-12.7,12.7
		c0,6.9,5.5,12.5,12.3,12.7c0.1-0.4,0.3-0.7,0.4-1.1H204z"/>
	<path id="XMLID_23_" class="st2" d="M198.8,108.3c-0.1,0.4-0.3,0.7-0.4,1.1c0.1,0,0.3,0,0.4,0V108.3z"/>
	<path id="XMLID_20_" class="st1" d="M119.5,136.8c0,0,0.6,1.5,1.8,4c5.8-1.2,10.2-6.3,10.2-12.5c0-7-5.7-12.7-12.7-12.7
		c-7,0-12.7,5.7-12.7,12.7s5.7,12.7,12.7,12.7c0.3,0,0.6-0.1,0.8-0.1C119.6,139.5,119.5,138.1,119.5,136.8"/>
	<path id="XMLID_17_" class="st1" d="M119.5,136.8c0.1,1.3,0.1,2.7,0.1,4.2c0.6,0,1.1-0.1,1.7-0.2
		C120.1,138.3,119.5,136.8,119.5,136.8"/>
	<path id="XMLID_14_" class="st1" d="M47.3,162.8c5.7-1.3,9.9-6.3,9.9-12.4c0-7-5.7-12.7-12.7-12.7c-7,0-12.7,5.7-12.7,12.7
		s5.7,12.7,12.7,12.7C45.5,163.1,46.4,163,47.3,162.8c-0.1,0-0.1-0.1-0.1-0.1C47.2,162.7,47.3,162.7,47.3,162.8"/>
	<path id="XMLID_13_" class="st2" d="M47.2,162.7c0,0,0,0.1,0,0.1c0,0,0,0,0.1,0C47.3,162.7,47.2,162.7,47.2,162.7"/>
	<path id="XMLID_12_" class="st3" d="M295.1,248.3c0,0-17.3-71-17.1-107.3c-0.6,0-1.1-0.1-1.6-0.2c-6.4,14.7-29.3,67.7-38.4,102.1
		c0,0-15-66.9-38.9-133.5c-0.1,0-0.3,0-0.4,0V316h141.8c0,0,4.5-121.3,9.8-153.4C350.4,162.7,305.8,217.1,295.1,248.3"/>
	<path id="XMLID_11_" class="st2" d="M199.2,109.3c1.7-0.1,3.3-0.4,4.8-1.1h-5.1C199,108.6,199.1,109,199.2,109.3"/>
	<path id="XMLID_10_" class="st2" d="M198.8,109.4c0.1,0,0.2,0,0.4,0c-0.1-0.4-0.2-0.7-0.4-1.1V109.4z"/>
	<path id="XMLID_7_" class="st1" d="M278.1,140.9c0.4,0,0.8,0.1,1.2,0.1c7,0,12.7-5.7,12.7-12.7s-5.7-12.7-12.7-12.7
		c-7,0-12.7,5.7-12.7,12.7c0,6.1,4.2,11.1,9.9,12.4c1.1-2.5,1.7-3.9,1.7-3.9C278.1,138.1,278.1,139.5,278.1,140.9"/>
	<path id="XMLID_6_" class="st2" d="M278.2,136.8c0,0-0.6,1.4-1.7,3.9c0.5,0.1,1.1,0.2,1.6,0.2C278.1,139.5,278.1,138.1,278.2,136.8
		"/>
	<path id="XMLID_3_" class="st1" d="M355.5,137.7c-7,0-12.7,5.7-12.7,12.7s5.7,12.7,12.7,12.7c7,0,12.7-5.7,12.7-12.7
		S362.5,137.7,355.5,137.7"/>
</g>
</svg>
