<?xml version="1.0" encoding="utf-8"?>
<!-- Generator: Adobe Illustrator 19.0.0, SVG Export Plug-In . SVG Version: 6.00 Build 0)  -->
<svg version="1.1" id="图层_1" xmlns="http://www.w3.org/2000/svg" xmlns:xlink="http://www.w3.org/1999/xlink" x="0px" y="0px"
	 viewBox="0 0 400 400" style="enable-background:new 0 0 400 400;" xml:space="preserve">
<style type="text/css">
	.st0{fill:#A0AEFF;}
	.st1{fill:#B8E6FF;}
	.st2{fill:#007FFF;}
</style>
<g id="XMLID_14_">
	<g id="XMLID_30_">
		<g id="XMLID_32_">
			<path id="XMLID_33_" class="st0" d="M198,17.7c-29.6,0-53.7,24-53.7,53.7s24,53.7,53.7,53.7c29.7,0,53.7-24,53.7-53.7
				S227.6,17.7,198,17.7z M198,103.8c-17.9,0-32.5-14.5-32.5-32.5s14.5-32.5,32.5-32.5c17.9,0,32.5,14.5,32.5,32.5
				S215.9,103.8,198,103.8z"/>
		</g>
		<path id="XMLID_10_" class="st1" d="M221.1,136.9c0,11.7-9.5,21.2-21.2,21.2l0,0c-11.7,0-21.2-9.5-21.2-21.2V98.2
			c0-11.7,9.5-21.2,21.2-21.2l0,0c11.7,0,21.2,9.5,21.2,21.2V136.9z"/>
	</g>
	<g id="XMLID_27_">
		<polygon id="XMLID_9_" class="st1" points="124.3,152.3 106.1,167.6 97.5,157.3 115.7,142 		"/>
		<path id="XMLID_8_" class="st2" d="M119.1,117.7c5.9,7.1,5,17.6-2.1,23.6l-20.9,17.5c-7.1,5.9-17.6,5-23.6-2.1l0,0
			c-5.9-7.1-5-17.6,2.1-23.6l20.9-17.5C102.6,109.7,113.2,110.6,119.1,117.7L119.1,117.7z"/>
	</g>
	<g id="XMLID_24_">
		
			<rect id="XMLID_7_" x="277.1" y="148.4" transform="matrix(0.7661 0.6428 -0.6428 0.7661 167.2828 -149.4952)" class="st1" width="23.8" height="13.4"/>
		<path id="XMLID_6_" class="st2" d="M327,156.7c-5.9,7.1-16.5,8-23.6,2.1l-20.9-17.5c-7.1-5.9-8-16.5-2.1-23.6l0,0
			c5.9-7.1,16.5-8,23.6-2.1l20.9,17.5C332,139.1,332.9,149.7,327,156.7L327,156.7z"/>
	</g>
	<g id="XMLID_15_">
		<path id="XMLID_5_" class="st0" d="M331.3,251.5c0,72.2-58.6,130.8-130.8,130.8c-72.2,0-130.8-58.6-130.8-130.8
			c0-72.2,58.6-130.8,130.8-130.8C272.8,120.7,331.3,179.2,331.3,251.5z"/>
		<path id="XMLID_4_" class="st1" d="M313,251.5c0,62.1-50.4,112.5-112.5,112.5C138.4,364,88,313.6,88,251.5
			C88,189.3,138.4,139,200.5,139C262.7,139,313,189.3,313,251.5z"/>
		<g id="XMLID_16_">
			<path id="XMLID_20_" class="st0" d="M174.9,298.9v-13.5h13.5v-57.7h-10v-10l10-13.5h13.5v81.2h13.5v13.5H174.9z"/>
			<path id="XMLID_17_" class="st0" d="M235.8,217.6v-13.5h13.5v13.5l-6.8,13.5h-6.8l6.8-13.5H235.8z M256.1,217.6v-13.5h13.5v13.5
				l-6.8,13.5h-6.8l6.8-13.5H256.1z"/>
		</g>
	</g>
</g>
</svg>
